<svg width="450" height="150" viewBox="0 0 450 150" fill="none" xmlns="http://www.w3.org/2000/svg">
<rect width="450" height="150" fill="#1B1A17"/>
<path d="M62.504 93.992L35.24 78.056V74.984L62.312 60.712V65.256L40.104 76.584L62.504 89.128V93.992ZM72.872 99.688L69.096 97.832L89.128 54.44L92.968 56.424L72.872 99.688ZM110.312 97V61.096H98.984V57.064H126.632V61.096H114.856V97H110.312ZM260.584 97V57.128H272.36C275.517 57.128 278.056 57.5973 279.976 58.536C281.939 59.4747 283.368 60.7973 284.264 62.504C285.16 64.2107 285.608 66.216 285.608 68.52C285.608 70.0133 285.267 71.5067 284.584 73C283.944 74.4933 283.005 75.7947 281.768 76.904C280.573 78.0133 279.144 78.7813 277.48 79.208L286.696 97H281.704L272.872 79.4H265.128V97H260.584ZM265.128 75.432H272.872C275.731 75.432 277.8 74.8133 279.08 73.576C280.36 72.296 281 70.6107 281 68.52C281 67.1973 280.723 66.0027 280.168 64.936C279.613 63.8267 278.739 62.952 277.544 62.312C276.349 61.672 274.792 61.352 272.872 61.352H265.128V75.432ZM387.56 93.992V89.128L409.896 76.584L387.688 65.256V60.712L414.824 74.984V78.056L387.56 93.992Z" fill="#FF8303"/>
<path d="M146.408 97.64C144.275 97.64 142.333 97.32 140.584 96.68C138.835 95.9973 137.32 95.016 136.04 93.736C134.803 92.456 133.843 90.8773 133.16 89C132.477 87.08 132.136 84.904 132.136 82.472C132.136 79.9973 132.477 77.8 133.16 75.88C133.885 73.96 134.845 72.36 136.04 71.08C137.277 69.7573 138.707 68.7547 140.328 68.072C141.992 67.3893 143.741 67.048 145.576 67.048C147.24 67.048 148.797 67.3253 150.248 67.88C151.699 68.4347 152.957 69.288 154.024 70.44C155.091 71.5493 155.923 72.9787 156.52 74.728C157.16 76.4773 157.48 78.5467 157.48 80.936C157.48 81.2773 157.459 81.64 157.416 82.024C157.416 82.3653 157.395 82.7067 157.352 83.048H136.552C136.637 84.9253 136.957 86.568 137.512 87.976C138.067 89.3413 138.792 90.472 139.688 91.368C140.584 92.2213 141.608 92.8613 142.76 93.288C143.955 93.7147 145.213 93.928 146.536 93.928C147.56 93.928 148.52 93.8213 149.416 93.608C150.312 93.352 151.144 92.9893 151.912 92.52C152.723 92.008 153.448 91.3893 154.088 90.664L156.648 93.16C155.837 94.1413 154.899 94.9733 153.832 95.656C152.808 96.3387 151.677 96.8293 150.44 97.128C149.203 97.4693 147.859 97.64 146.408 97.64ZM136.744 79.464H152.808C152.808 78.0987 152.616 76.8827 152.232 75.816C151.891 74.7067 151.379 73.768 150.696 73C150.056 72.1893 149.267 71.592 148.328 71.208C147.432 70.7813 146.408 70.568 145.256 70.568C144.232 70.568 143.251 70.7387 142.312 71.08C141.416 71.4213 140.584 71.976 139.816 72.744C139.048 73.4693 138.387 74.3867 137.832 75.496C137.32 76.6053 136.957 77.928 136.744 79.464ZM173.416 108.136C171.581 108.136 169.832 107.795 168.168 107.112C166.547 106.429 165.181 105.405 164.072 104.04L166.632 100.584L167.016 100.072L167.4 100.328C167.485 100.669 167.592 100.989 167.72 101.288C167.848 101.629 168.147 102.056 168.616 102.568C169.213 103.037 169.896 103.421 170.664 103.72C171.475 104.019 172.371 104.168 173.352 104.168C174.632 104.168 175.763 103.869 176.744 103.272C177.768 102.717 178.557 101.821 179.112 100.584C179.667 99.3893 179.944 97.8107 179.944 95.848V71.528H169.064V67.752H184.616V95.592C184.616 98.536 184.104 100.925 183.08 102.76C182.056 104.637 180.691 106.003 178.984 106.856C177.32 107.709 175.464 108.136 173.416 108.136ZM181.928 61.608C181.032 61.608 180.264 61.288 179.624 60.648C178.984 60.008 178.664 59.24 178.664 58.344C178.664 57.4053 178.963 56.616 179.56 55.976C180.2 55.336 180.989 55.016 181.928 55.016C182.824 55.016 183.592 55.3573 184.232 56.04C184.915 56.68 185.256 57.448 185.256 58.344C185.256 59.24 184.915 60.008 184.232 60.648C183.592 61.288 182.824 61.608 181.928 61.608ZM206.504 97.704C203.176 97.704 200.616 96.9573 198.824 95.464C197.032 93.928 196.136 91.9867 196.136 89.64C196.136 88.0613 196.52 86.6533 197.288 85.416C198.056 84.136 199.101 83.0693 200.424 82.216C201.789 81.32 203.368 80.6373 205.16 80.168C206.952 79.6987 208.851 79.464 210.856 79.464C211.581 79.464 212.307 79.4853 213.032 79.528C213.8 79.528 214.589 79.5707 215.4 79.656C216.253 79.6987 217.128 79.784 218.024 79.912L218.152 83.432C217.384 83.304 216.595 83.2187 215.784 83.176C215.016 83.0907 214.248 83.0267 213.48 82.984C212.712 82.9413 211.965 82.92 211.24 82.92C209.704 82.92 208.296 83.048 207.016 83.304C205.736 83.56 204.627 83.944 203.688 84.456C202.749 84.968 202.024 85.6293 201.512 86.44C201 87.2507 200.744 88.232 200.744 89.384C200.744 90.28 200.893 91.048 201.192 91.688C201.533 92.2853 201.981 92.776 202.536 93.16C203.091 93.5013 203.731 93.7573 204.456 93.928C205.224 94.0987 206.056 94.184 206.952 94.184C208.616 94.184 210.088 93.928 211.368 93.416C212.691 92.8613 213.8 92.072 214.696 91.048C215.635 90.024 216.339 88.7653 216.808 87.272C217.277 85.7787 217.512 84.072 217.512 82.152C217.512 79.2507 217.171 76.9893 216.488 75.368C215.805 73.7467 214.781 72.5947 213.416 71.912C212.093 71.2293 210.387 70.888 208.296 70.888C206.888 70.888 205.501 71.1653 204.136 71.72C202.771 72.232 201.533 73.0427 200.424 74.152L198.184 71.208C199.549 69.8427 201.128 68.8187 202.92 68.136C204.712 67.4533 206.611 67.112 208.616 67.112C210.536 67.112 212.285 67.3467 213.864 67.816C215.443 68.2853 216.787 69.0747 217.896 70.184C219.048 71.2507 219.923 72.7013 220.52 74.536C221.16 76.3707 221.48 78.6747 221.48 81.448V97H216.488V92.52C215.933 93.5867 215.251 94.4613 214.44 95.144C213.672 95.8267 212.84 96.36 211.944 96.744C211.048 97.0853 210.131 97.32 209.192 97.448C208.253 97.6187 207.357 97.704 206.504 97.704ZM241.064 97.64C239.443 97.64 237.885 97.4693 236.392 97.128C234.941 96.7867 233.555 96.2747 232.232 95.592C230.952 94.9093 229.757 94.056 228.648 93.032L231.208 88.68L231.592 88.104L231.976 88.36C232.061 88.7013 232.147 89.064 232.232 89.448C232.36 89.7893 232.659 90.216 233.128 90.728C234.024 91.624 235.091 92.3707 236.328 92.968C237.608 93.5227 239.229 93.8 241.192 93.8C242.771 93.8 244.093 93.608 245.16 93.224C246.269 92.84 247.123 92.3067 247.72 91.624C248.317 90.8987 248.616 90.0667 248.616 89.128C248.616 88.488 248.488 87.9333 248.232 87.464C247.976 86.952 247.549 86.4827 246.952 86.056C246.397 85.6293 245.651 85.2027 244.712 84.776C243.773 84.3493 242.621 83.9227 241.256 83.496C239.037 82.856 237.096 82.1093 235.432 81.256C233.768 80.4027 232.488 79.4213 231.592 78.312C230.696 77.16 230.248 75.8587 230.248 74.408C230.248 72.9147 230.653 71.6347 231.464 70.568C232.275 69.4587 233.469 68.6053 235.048 68.008C236.669 67.368 238.653 67.048 241 67.048C242.365 67.048 243.603 67.1547 244.712 67.368C245.821 67.5387 246.845 67.816 247.784 68.2C248.723 68.584 249.576 69.0747 250.344 69.672C251.155 70.2267 251.923 70.888 252.648 71.656L250.024 74.856L249.576 75.368L249.256 75.048C249.213 74.7067 249.107 74.3867 248.936 74.088C248.808 73.7467 248.509 73.3413 248.04 72.872C247.059 72.104 245.949 71.528 244.712 71.144C243.475 70.7173 242.28 70.504 241.128 70.504C239.421 70.504 237.949 70.8027 236.712 71.4C235.475 71.9973 234.856 72.9147 234.856 74.152C234.856 74.792 235.069 75.432 235.496 76.072C235.965 76.6693 236.797 77.288 237.992 77.928C239.187 78.5253 240.893 79.144 243.112 79.784C245.544 80.552 247.485 81.3413 248.936 82.152C250.429 82.92 251.496 83.816 252.136 84.84C252.819 85.864 253.16 87.08 253.16 88.488C253.16 90.1093 252.712 91.624 251.816 93.032C250.963 94.44 249.64 95.5707 247.848 96.424C246.056 97.2347 243.795 97.64 241.064 97.64ZM305 97.512C302.355 97.512 300.008 96.872 297.96 95.592C295.955 94.2693 294.376 92.4773 293.224 90.216C292.072 87.912 291.496 85.288 291.496 82.344C291.496 79.3573 292.072 76.7333 293.224 74.472C294.376 72.168 295.955 70.376 297.96 69.096C300.008 67.7733 302.355 67.112 305 67.112C307.645 67.112 309.971 67.7733 311.976 69.096C314.024 70.376 315.624 72.168 316.776 74.472C317.928 76.7333 318.504 79.3573 318.504 82.344C318.504 85.288 317.928 87.912 316.776 90.216C315.624 92.4773 314.024 94.2693 311.976 95.592C309.971 96.872 307.645 97.512 305 97.512ZM305 93.672C306.707 93.672 308.2 93.1813 309.48 92.2C310.76 91.2187 311.763 89.8747 312.488 88.168C313.256 86.4613 313.64 84.4987 313.64 82.28C313.64 80.0613 313.256 78.0987 312.488 76.392C311.763 74.6853 310.76 73.3627 309.48 72.424C308.2 71.4427 306.707 70.952 305 70.952C303.336 70.952 301.843 71.4427 300.52 72.424C299.24 73.3627 298.216 74.6853 297.448 76.392C296.723 78.0987 296.36 80.0613 296.36 82.28C296.36 84.4987 296.723 86.4613 297.448 88.168C298.216 89.8747 299.24 91.2187 300.52 92.2C301.843 93.1813 303.336 93.672 305 93.672ZM340.136 97.448C338.259 97.448 336.723 97.128 335.528 96.488C334.333 95.848 333.416 94.8667 332.776 93.544C332.136 92.1787 331.709 90.472 331.496 88.424C331.325 86.376 331.283 83.944 331.368 81.128L332.136 60.264L336.936 59.688L337.576 59.624L337.64 60.072C337.427 60.3707 337.235 60.6693 337.064 60.968C336.936 61.2667 336.829 61.7787 336.744 62.504L336.168 69.736L336.36 70.888L335.912 81.448C335.784 84.6907 335.869 87.208 336.168 89C336.467 90.7493 337 91.9653 337.768 92.648C338.536 93.288 339.56 93.608 340.84 93.608C342.248 93.608 343.485 93.3307 344.552 92.776C345.661 92.2213 346.813 91.5173 348.008 90.664L349.416 94.312C347.965 95.3787 346.472 96.168 344.936 96.68C343.4 97.192 341.8 97.448 340.136 97.448ZM325.48 67.752H346.536V71.528H325.48V67.752ZM370.408 97.64C368.275 97.64 366.333 97.32 364.584 96.68C362.835 95.9973 361.32 95.016 360.04 93.736C358.803 92.456 357.843 90.8773 357.16 89C356.477 87.08 356.136 84.904 356.136 82.472C356.136 79.9973 356.477 77.8 357.16 75.88C357.885 73.96 358.845 72.36 360.04 71.08C361.277 69.7573 362.707 68.7547 364.328 68.072C365.992 67.3893 367.741 67.048 369.576 67.048C371.24 67.048 372.797 67.3253 374.248 67.88C375.699 68.4347 376.957 69.288 378.024 70.44C379.091 71.5493 379.923 72.9787 380.52 74.728C381.16 76.4773 381.48 78.5467 381.48 80.936C381.48 81.2773 381.459 81.64 381.416 82.024C381.416 82.3653 381.395 82.7067 381.352 83.048H360.552C360.637 84.9253 360.957 86.568 361.512 87.976C362.067 89.3413 362.792 90.472 363.688 91.368C364.584 92.2213 365.608 92.8613 366.76 93.288C367.955 93.7147 369.213 93.928 370.536 93.928C371.56 93.928 372.52 93.8213 373.416 93.608C374.312 93.352 375.144 92.9893 375.912 92.52C376.723 92.008 377.448 91.3893 378.088 90.664L380.648 93.16C379.837 94.1413 378.899 94.9733 377.832 95.656C376.808 96.3387 375.677 96.8293 374.44 97.128C373.203 97.4693 371.859 97.64 370.408 97.64ZM360.744 79.464H376.808C376.808 78.0987 376.616 76.8827 376.232 75.816C375.891 74.7067 375.379 73.768 374.696 73C374.056 72.1893 373.267 71.592 372.328 71.208C371.432 70.7813 370.408 70.568 369.256 70.568C368.232 70.568 367.251 70.7387 366.312 71.08C365.416 71.4213 364.584 71.976 363.816 72.744C363.048 73.4693 362.387 74.3867 361.832 75.496C361.32 76.6053 360.957 77.928 360.744 79.464Z" fill="#F0E3CA"/>
</svg>
